<?xml version="1.0" encoding="UTF-8" standalone="no"?>
<svg
   version="1.1"
   id="svg2"
   xml:space="preserve"
   width="1587.4"
   height="1122.52"
   viewBox="0 0 1587.4 1122.52"
   sodipodi:docname="GPA_branco_COR_POS_CMYK.svg"
   inkscape:version="1.1 (c4e8f9e, 2021-05-24)"
   xmlns:inkscape="http://www.inkscape.org/namespaces/inkscape"
   xmlns:sodipodi="http://sodipodi.sourceforge.net/DTD/sodipodi-0.dtd"
   xmlns="http://www.w3.org/2000/svg"
   xmlns:svg="http://www.w3.org/2000/svg"
   xmlns:rdf="http://www.w3.org/1999/02/22-rdf-syntax-ns#"
   xmlns:cc="http://creativecommons.org/ns#"
   xmlns:dc="http://purl.org/dc/elements/1.1/"><metadata
     id="metadata8"><rdf:RDF><cc:Work
         rdf:about=""><dc:format>image/svg+xml</dc:format><dc:type
           rdf:resource="http://purl.org/dc/dcmitype/StillImage" /></cc:Work></rdf:RDF></metadata><defs
     id="defs6"><clipPath
       clipPathUnits="userSpaceOnUse"
       id="clipPath18"><path
         d="M 151.677,130.88 H 1039.1 v 580 H 151.677 Z"
         id="path16" /></clipPath></defs><sodipodi:namedview
     pagecolor="#ffffff"
     bordercolor="#666666"
     borderopacity="1"
     objecttolerance="10"
     gridtolerance="10"
     guidetolerance="10"
     inkscape:pageopacity="0"
     inkscape:pageshadow="2"
     inkscape:window-width="1440"
     inkscape:window-height="900"
     id="namedview4"
     inkscape:pagecheckerboard="0"
     showgrid="false"
     inkscape:zoom="0.55321953"
     inkscape:cx="782.69109"
     inkscape:cy="574.81701"
     inkscape:window-x="0"
     inkscape:window-y="0"
     inkscape:window-maximized="0"
     inkscape:current-layer="g10" /><g
     id="g10"
     inkscape:groupmode="layer"
     inkscape:label="GPA_AZUL_COR_POS_CMYK"
     transform="matrix(1.3333333,0,0,-1.3333333,0,1122.52)"><g
       id="g12"><g
         id="g14"
         clip-path="url(#clipPath18)"><g
           id="g20"
           transform="translate(555.1118,257.8701)"><path
             d="m 0,0 -1.259,0.013 c -29.307,0.146 -52.873,8.802 -68.121,24.98 -14.474,15.311 -21.388,37.367 -19.979,63.777 1.975,42.22 34.611,105.015 116.528,105.015 h 0.818 c 20.934,-0.126 41.788,-5.58 50.694,-13.285 l 1.215,-1.043 -0.365,-1.586 c -1.496,-6.393 -5.819,-13.282 -13.5,-13.282 -1.746,0 -3.528,0.385 -5.383,1.126 -4.391,1.745 -17.791,7.084 -32.509,7.174 h -0.485 c -48.37,0 -83.823,-34.89 -86.164,-84.856 -1.018,-21.145 4.516,-38.714 15.979,-50.861 11.09,-11.668 27.722,-17.915 48.124,-18.028 8.543,0 18.105,1.824 22.33,3.145 2.794,13.392 6.342,35.253 7.876,44.663 0.19,1.07 0.308,1.963 0.429,2.605 -3.094,-0.465 -11.122,-1.725 -14.306,-2.033 l -4.497,-0.49 h -0.018 c -1.134,0 -2.091,0.459 -2.681,1.239 -0.289,0.347 -0.289,0.844 -0.2,1.421 0.516,3.562 5.195,16.204 10.09,19.765 l 0.301,0.139 c 0.125,0.012 13.109,3.391 22.823,4.744 1.572,0.238 10.467,1.096 12.248,1.096 2.515,-0.027 4.297,-0.663 5.478,-2.077 1.612,-1.849 1.522,-4.391 1.266,-6.398 C 65.529,80.898 60.593,53.816 56.621,32.076 54.822,22.245 53.255,13.771 52.47,9.393 L 52.167,7.758 50.558,7.316 C 32.39,2.26 16.822,0 0,0"
             style="fill:#004877;fill-opacity:1;fill-rule:nonzero;stroke:none"
             id="path22" /></g><g
           id="g24"
           transform="translate(891.5703,257.8701)"><path
             d="m 0,0 c -3.652,0 -4.428,1.077 -5.932,8.141 l -27.25,144.05 -36.648,-72.883 h 40.543 l -0.078,-2.673 C -29.551,67.204 -36.98,58.768 -45.234,58.573 h -35.53 L -107.525,5.129 c -1.547,-2.743 -2.496,-4.039 -7.838,-4.039 h -15.155 c -2.162,0 -3.558,0.529 -4.168,1.586 -0.554,0.911 -0.416,2.075 0.37,3.432 0,0 2.019,4.128 4.964,9.236 0.803,1.542 79.664,154.561 86.903,168.351 l -1.188,5.397 1.799,0.932 c 3.852,1.911 11.184,4.025 16.318,4.025 3.182,0 7.649,-0.944 9.928,-9.259 L 20.465,8.266 C 20.848,6.43 19.748,4.877 17.494,4.197 L 15.15,3.492 C 10.16,2.009 3.328,0 0,0"
             style="fill:#004877;fill-opacity:1;fill-rule:nonzero;stroke:none"
             id="path26" /></g><g
           id="g28"
           transform="translate(653.6348,257.8701)"><path
             d="m 0,0 h -0.043 c -0.693,0.095 -2.379,0.397 -3.314,1.688 -0.602,0.829 -0.815,1.824 -0.586,3.038 2.968,16.129 9.013,55.42 14.832,93.441 4.933,31.892 9.543,62.075 11.715,74.047 -2.215,-0.208 -4.915,-0.528 -7.084,-0.747 l -0.227,-0.051 c -2.014,-0.208 -3.547,-0.39 -3.75,-0.39 -1.592,0 -2.391,1.188 -2.402,2.284 0.478,4.146 3.824,11.654 8.189,14.8 l 0.359,0.164 c 7.014,2.491 28.579,5.624 42.04,5.624 23.544,0 41.103,-5.888 52.212,-17.469 9.575,-9.982 14.09,-23.747 13.366,-40.973 -1.836,-46.882 -39.321,-63.893 -64.106,-63.893 -7.781,0 -10.996,0.813 -14.267,3.629 -3.774,3.259 -5.754,8.657 -5.364,14.426 0.092,1.881 1.026,2.605 2.743,1.829 2.81,-1.113 5.597,-1.334 9.484,-1.334 27.736,0 42.424,15.419 43.627,45.803 0.484,11.619 -2.738,21.345 -9.254,28.153 -6.795,7.057 -17.154,10.826 -29.92,10.826 -2.041,0 -6.547,0 -9.02,-0.156 C 45.273,151.512 23.383,6.437 23.17,4.97 22.564,2.65 20.627,0.077 17.205,0.077 Z"
             style="fill:#004877;fill-opacity:1;fill-rule:nonzero;stroke:none"
             id="path30" /></g><g
           id="g32"
           transform="translate(630.8809,509.7485)"><path
             d="m 0,0 c 0,0 -1.004,0.731 -2.885,2.191 -0.939,0.69 -2.109,1.559 -3.467,2.604 -1.398,0.993 -3.005,2.106 -4.82,3.396 -1.773,1.296 -3.848,2.63 -6.074,4.051 -2.201,1.509 -4.733,2.956 -7.379,4.549 -5.381,3.076 -11.563,6.396 -18.69,9.315 -7.071,2.958 -15.067,5.637 -23.818,7.399 -4.377,0.906 -8.918,1.473 -13.626,1.804 -4.679,0.241 -9.486,0.379 -14.366,-0.087 -1.17,-0.095 -2.284,-0.195 -3.449,-0.347 -0.615,0.529 -1.572,1.309 -2.899,2.422 -1.202,1.026 -2.737,2.291 -4.605,3.694 -1.843,1.396 -3.919,3.082 -6.385,4.788 -4.818,3.578 -10.957,7.599 -18.292,11.742 -7.393,4.154 -16.093,8.279 -26.183,11.532 -10.058,3.176 -21.601,5.385 -33.907,5.208 -12.284,-0.2 -25.262,-2.861 -37.404,-8.21 -12.115,-5.339 -23.332,-13.076 -33.301,-22.173 -9.921,-9.154 -18.683,-19.557 -26.346,-30.579 -7.681,-11.034 -14.317,-22.658 -20.117,-34.398 -5.838,-11.699 -10.763,-23.564 -15.098,-35.175 -4.321,-11.625 -7.907,-23.031 -11.008,-33.907 -3.096,-10.884 -5.631,-21.289 -7.738,-30.907 -4.239,-19.245 -6.744,-35.487 -8.342,-46.872 -0.754,-5.663 -1.358,-10.134 -1.685,-13.206 -0.365,-3.054 -0.541,-4.648 -0.541,-4.648 -0.138,-1.057 0.616,-2.05 1.686,-2.214 1.082,-0.2 2.138,0.541 2.29,1.65 0,0 0.264,1.616 0.754,4.654 0.453,3.045 1.202,7.422 2.164,13.04 2.077,11.204 5.177,27.194 10.116,46.028 2.472,9.423 5.398,19.577 8.857,30.17 3.46,10.559 7.435,21.624 12.135,32.827 4.667,11.14 9.907,22.52 15.985,33.603 6.038,11.086 12.889,21.969 20.557,32.082 7.63,10.16 16.21,19.465 25.533,27.415 9.33,7.876 19.526,14.244 30.038,18.356 10.481,4.151 21.288,5.827 31.435,5.632 10.146,-0.26 19.695,-2.435 28.151,-5.524 8.479,-3.101 15.927,-6.988 22.318,-10.901 6.341,-3.945 11.688,-7.75 15.928,-11.142 0.542,-0.421 0.993,-0.818 1.51,-1.221 -0.403,-0.169 -0.818,-0.269 -1.208,-0.446 -4.699,-1.919 -9.261,-4.251 -13.626,-6.868 -4.384,-2.53 -8.567,-5.454 -12.544,-8.556 -3.975,-3.094 -7.768,-6.442 -11.347,-9.934 -3.586,-3.466 -6.977,-7.096 -10.153,-10.826 -6.418,-7.435 -11.966,-15.285 -16.922,-23.097 -9.852,-15.704 -17.01,-31.392 -22.054,-45.194 -5.058,-13.852 -7.99,-25.78 -9.324,-34.316 -0.66,-4.279 -0.961,-7.65 -1.05,-10.016 -0.063,-1.213 -0.032,-1.175 -0.032,-1.755 0,-0.577 0.063,-0.71 0.063,-0.71 0,-0.962 0.717,-1.75 1.686,-1.811 0.994,-0.044 1.837,0.754 1.875,1.703 0,0 0.013,0.354 0.05,0.906 0.032,0.579 0,0.403 0.119,1.46 0.184,2.134 0.604,5.385 1.466,9.474 1.636,8.14 5.039,19.678 10.606,32.928 5.542,13.184 13.223,28.182 23.445,42.8 5.09,7.322 10.794,14.531 17.149,21.288 3.176,3.371 6.486,6.612 10.002,9.68 3.492,3.102 7.102,6.026 10.915,8.677 3.773,2.678 7.686,5.12 11.756,7.252 4.008,2.158 8.128,4.02 12.349,5.511 2.089,0.785 4.227,1.378 6.334,2.019 0.497,0.126 0.975,0.252 1.447,0.364 1.642,0.403 3.278,0.845 4.926,1.109 2.132,0.425 4.272,0.677 6.378,0.98 1.057,0.138 2.114,0.164 3.164,0.277 0.812,0.074 1.63,0.113 2.473,0.144 h 0.692 c 4.183,0.258 8.31,-0.106 12.343,-0.447 3.999,-0.529 7.92,-1.175 11.65,-2.157 7.499,-1.881 14.431,-4.547 20.583,-7.454 6.214,-2.932 11.637,-6.151 16.368,-9.184 2.334,-1.56 4.541,-2.963 6.537,-4.441 1.956,-1.411 3.791,-2.693 5.403,-3.976 1.578,-1.234 3.006,-2.366 4.263,-3.336 1.217,-0.998 2.252,-1.859 3.071,-2.59 1.699,-1.409 2.586,-2.138 2.586,-2.138 l 0.244,-0.215 c 0.09,-0.062 0.189,-0.164 0.299,-0.226 4.004,-3.027 9.699,-2.257 12.724,1.75 C 4.762,-8.73 3.996,-3.051 0,0"
             style="fill:#004877;fill-opacity:1;fill-rule:nonzero;stroke:none"
             id="path34" /></g></g></g><path
       style="fill:#a0a0a0;stroke:none;stroke-width:1.8076"
       d=""
       id="path143"
       transform="matrix(0.75000002,0,0,-0.75000002,0,841.89002)" /><path
       style="fill:#ffffff;stroke-width:1.8076"
       d="m 714.01463,776.17814 c -48.14471,-7.39167 -80.41042,-36.1838 -89.34193,-79.72377 -5.61051,-27.3505 -2.64875,-55.70036 8.76392,-83.88806 19.33227,-47.74798 59.23763,-79.4006 111.64187,-88.55346 35.21233,-6.15013 81.44858,0.45915 98.48636,14.07824 2.88715,2.30784 -0.10972,10.64739 -5.72053,15.91841 -5.08824,4.78015 -11.12895,4.4105 -30.75062,-1.88173 -18.75002,-6.01272 -46.95847,-5.64827 -67.26897,0.86909 -35.97016,11.54234 -61.99782,38.95463 -74.01927,77.957 -5.02077,16.28935 -4.67576,57.51861 0.59917,71.60241 10.98311,29.32441 33.37196,46.091 67.31128,50.40814 13.34319,1.69727 40.9597,-0.43814 43.84974,-3.39062 0.66063,-0.67491 3.6107,-15.3344 6.5557,-32.57664 l 5.35455,-31.34952 -14.23801,1.26035 c -12.58582,1.1141 -14.23801,0.9109 -14.23801,-1.75112 0,-4.80207 9.01289,-22.53427 12.33679,-24.27172 4.04029,-2.11192 20.01794,-5.4479 35.46512,-7.40478 14.12112,-1.78889 19.05949,-0.26326 19.11598,5.90559 0.0202,2.20192 -4.23273,27.40801 -9.45086,56.01352 l -9.48752,52.01002 -7.04107,1.89596 c -26.55859,7.15148 -66.01797,10.2359 -87.92369,6.87269 z"
       id="path10093"
       transform="matrix(0.75000002,0,0,-0.75000002,0,841.89002)" /><path
       style="fill:#ffffff;stroke-width:1.8076"
       d="m 868.27696,775.39542 c -0.58603,-1.52717 0.70881,-13.52512 2.87743,-26.66211 2.16862,-13.13699 8.40343,-52.76186 13.85512,-88.05526 5.4517,-35.29341 11.503,-73.93087 13.44735,-85.86104 4.69427,-28.80323 5.04501,-26.85047 -4.62689,-25.76031 -4.48952,0.50603 -8.50119,0.37247 -8.91483,-0.29681 -1.47103,-2.38018 6.0005,-16.18647 10.27545,-18.98752 5.91319,-3.87448 36.47509,-8.26179 57.41497,-8.2422 51.29044,0.048 81.92984,23.86538 84.46534,65.6589 2.738,45.13062 -21.2879,80.44009 -62.51297,91.87145 -24.43844,6.77658 -41.05513,3.07192 -45.41021,-10.12413 -1.17664,-3.56524 -1.86126,-7.31647 -1.5214,-8.33607 0.3536,-1.0608 8.34155,-2.04243 18.67329,-2.29474 15.57373,-0.38033 19.33456,-1.10859 27.36236,-5.2986 18.41165,-9.60973 27.74883,-28.46236 27.74883,-56.02754 0,-19.37837 -2.75036,-27.61469 -12.61911,-37.7898 -9.71271,-10.01423 -21.49552,-14.19804 -39.98579,-14.19804 -11.82883,0 -12.21196,0.14392 -13.23345,4.97091 -0.88182,4.167 -12.6227,80.52844 -30.22444,196.57657 -2.29522,15.13242 -4.94397,26.57816 -6.58838,28.46971 -3.76768,4.33392 -28.8459,4.652 -30.48267,0.38663 z"
       id="path10132"
       transform="matrix(0.75000002,0,0,-0.75000002,0,841.89002)" /><path
       style="fill:#ffffff;stroke-width:1.8076"
       d="m 1184.2322,775.00879 c -0.9246,-1.73982 -9.9832,-47.088 -20.1302,-100.77374 -10.147,-53.68574 -18.7734,-97.94936 -19.1699,-98.3636 -0.3965,-0.41424 -1.0371,-0.41424 -1.4235,0 -1.1002,1.1794 -48.1026,95.51379 -48.1026,96.54261 0,0.50446 12.1157,0.91719 26.9237,0.91719 h 26.9236 l -1.4361,6.36741 c -3.9069,17.32263 -11.1274,20.74573 -43.767,20.74902 l -24.0088,0.002 -18.9798,37.50531 -18.9798,37.50529 -15.8165,0.52227 c -12.7337,0.42048 -15.8165,0.0198 -15.8165,-2.05544 0,-1.41776 3.5872,-9.38027 7.9715,-17.69448 45.7509,-86.75978 114.7778,-223.09247 114.453,-226.05214 -0.8391,-7.64679 24.0933,-11.95081 30.1919,-5.21193 2.2333,2.4677 10.1968,37.98014 27.4501,122.41068 13.3674,65.41398 24.0649,120.17765 23.7723,121.69703 -0.321,1.66644 -4.8256,3.96146 -11.3535,5.78432 -14.0908,3.93471 -16.6786,3.95518 -18.7019,0.14786 z"
       id="path10171"
       transform="matrix(0.75000002,0,0,-0.75000002,0,841.89002)" /><path
       style="fill:#ffffff;stroke-width:1.8076"
       d="m 372.37553,690.41308 c 0.0234,-8.41679 7.90537,-56.49936 13.61555,-83.05925 30.73614,-142.96349 94.12942,-238.03553 172.55753,-258.78761 15.99276,-4.23168 45.68255,-4.14166 62.20955,0.18863 25.68406,6.72956 52.65884,20.51869 76.14965,38.92663 l 10.92336,8.5598 21.61345,0.96827 c 24.1584,1.08229 42.48057,5.91427 64.99588,17.1409 13.68337,6.82284 39.07584,23.14363 45.64191,29.33595 7.44575,7.02193 3.44426,19.96317 -6.17268,19.96317 -1.9957,0 -8.44826,-3.86374 -14.33901,-8.5861 -67.29761,-53.94944 -131.72603,-55.74212 -186.91048,-5.20067 -37.78168,34.60286 -71.11441,94.00287 -80.61516,143.65874 -3.09835,16.19363 -4.34208,18.24751 -4.34208,7.17052 0,-12.1705 8.3152,-42.86168 18.2272,-67.27615 23.23582,-57.23267 59.3013,-101.31224 100.19256,-122.45624 6.44277,-3.33141 11.71714,-6.47882 11.72081,-6.99424 0.0127,-1.69345 -27.76725,-19.45794 -39.50109,-25.26039 -32.01109,-15.82965 -70.04993,-16.88783 -100.88562,-2.80647 -36.20488,16.53324 -71.1353,55.19384 -98.88267,109.44221 -27.06777,52.9197 -45.57868,109.8877 -58.17321,179.03016 -2.61807,14.37288 -5.49703,26.90527 -6.39768,27.84974 -1.0055,1.05441 -1.63378,0.35671 -1.62777,-1.8076 z"
       id="path10210"
       transform="matrix(0.75000002,0,0,-0.75000002,0,841.89002)" /><path
       style="fill:#ffffff;stroke-width:1.8076"
       d=""
       id="path10398"
       transform="matrix(0.75000002,0,0,-0.75000002,0,841.89002)" /></g></svg>
